<?xml version="1.0" encoding="UTF-8" standalone="no"?>
<svg 
  version="1.1" 
  xmlns="http://www.w3.org/2000/svg" 
  xmlns:xlink="http://www.w3.org/1999/xlink" 
  xmlns:svg="http://www.w3.org/2000/svg"
  xmlns:rdf="http://www.w3.org/1999/02/22-rdf-syntax-ns#"
  xmlns:cc="http://creativecommons.org/ns#"
  xmlns:dc="http://purl.org/dc/elements/1.1/"
  viewBox="100 100 568 568"
  width="568"
  height="568"
>
<style>svg {background-color: white; }</style>"
<metadata id="metadata1">
Created by https://svgstud.io and licensed under CC-BY-SA 4.0 license. Please attribute https://svgstud.io
</metadata>
<metadata id="prompt">
a simple brain icon
</metadata>
<metadata id="version">
7
</metadata>
<metadata id="metadata2">
<rdf:RDF>
<cc:Work
    rdf:about="">
    <cc:license
    rdf:resource="http://creativecommons.org/licenses/by-sa/4.0/" />
    <dc:creator>
        <cc:Agent>
            <dc:title>https://svgstud.io</dc:title>
        </cc:Agent>
    </dc:creator>
</cc:Work>
<cc:License
    rdf:about="http://creativecommons.org/licenses/by-sa/4.0/">
    <cc:permits
    rdf:resource="http://creativecommons.org/ns#Reproduction" />
    <cc:permits
    rdf:resource="http://creativecommons.org/ns#Distribution" />
    <cc:requires
    rdf:resource="http://creativecommons.org/ns#Notice" />
    <cc:requires
    rdf:resource="http://creativecommons.org/ns#Attribution" />
    <cc:permits
    rdf:resource="http://creativecommons.org/ns#DerivativeWorks" />
    <cc:requires
    rdf:resource="http://creativecommons.org/ns#ShareAlike" />
</cc:License>
</rdf:RDF>
</metadata>
<metadata id="uid">
7127cbb3ef2bd0d9d29292b7572246eeda0c457623b923dd3b06707aed2e441c
</metadata>
<path stroke="none" fill="black" fill-rule="evenodd" d="M335.50,593.56C327.50,593.84 321.55,593.61 320.03,592.96C318.67,592.38 317.21,591.36 316.79,590.70C316.37,590.04 316.03,585.67 316.03,581.00C316.03,576.33 316.69,565.30 317.51,556.50C318.32,547.70 318.99,537.04 319.00,532.81C319.00,528.31 318.55,524.84 317.90,524.44C317.30,524.07 309.76,523.37 301.15,522.89C292.54,522.41 281.90,521.30 277.50,520.41C273.10,519.53 266.97,517.46 263.87,515.83C260.78,514.19 256.34,510.97 254.02,508.68C251.70,506.38 248.88,502.71 247.76,500.53C246.65,498.34 245.33,495.19 244.84,493.53C244.35,491.86 243.48,485.10 242.90,478.50C242.32,471.90 241.54,463.12 241.16,459.00C240.59,452.67 239.93,450.72 237.00,446.50C233.74,441.82 233.47,440.84 232.86,431.15C232.50,425.46 231.79,420.39 231.28,419.88C230.78,419.38 226.42,418.32 221.60,417.54C216.78,416.76 211.71,415.39 210.34,414.49C208.96,413.58 206.98,410.97 205.94,408.67C204.90,406.38 204.04,403.15 204.03,401.50C204.02,399.85 204.51,396.70 205.12,394.50C205.73,392.30 209.44,383.98 213.37,376.00C220.50,361.50 220.50,361.50 220.59,335.00C220.67,310.40 220.86,307.60 223.31,295.90C224.76,288.97 227.35,279.29 229.07,274.40C230.78,269.50 234.88,260.27 238.17,253.88C241.46,247.49 247.66,237.59 251.95,231.88C256.24,226.17 263.74,217.51 268.62,212.62C273.51,207.74 282.15,200.25 287.84,195.98C293.53,191.71 302.98,185.73 308.84,182.71C314.70,179.68 324.00,175.53 329.50,173.49C335.00,171.45 344.23,168.73 350.00,167.44C355.77,166.16 364.87,164.63 370.21,164.05C375.55,163.47 384.78,163.00 390.71,163.01C396.64,163.01 405.55,163.47 410.50,164.02C415.45,164.57 423.10,165.73 427.50,166.60C431.90,167.46 439.49,169.28 444.36,170.63C449.23,171.98 458.76,175.47 465.54,178.38C472.32,181.29 482.74,186.46 488.69,189.87C494.63,193.28 504.45,199.74 510.50,204.23C516.55,208.72 527.12,218.04 534.00,224.96C540.88,231.87 549.42,241.25 553.00,245.81C556.58,250.37 563.45,260.26 568.27,267.80C573.09,275.33 579.05,285.39 581.51,290.14C583.97,294.90 587.54,303.45 589.45,309.14C591.36,314.84 593.66,323.77 594.57,329.00C595.69,335.44 596.06,341.72 595.74,348.50C595.48,354.03 594.27,362.30 593.05,367.00C591.83,371.67 589.33,378.75 587.49,382.73C585.65,386.70 581.86,393.27 579.06,397.32C576.26,401.37 570.49,408.05 566.23,412.17C561.98,416.28 555.80,421.47 552.50,423.69C549.20,425.91 543.23,429.37 539.23,431.39C535.23,433.40 529.83,435.89 527.23,436.91C524.63,437.94 519.94,439.96 516.81,441.39C513.68,442.83 509.50,445.69 507.50,447.75C505.51,449.81 502.59,454.01 501.01,457.08C499.43,460.15 497.45,465.34 496.60,468.62C495.75,471.91 494.53,480.19 493.90,487.04C493.16,495.10 492.97,508.86 493.38,526.00C493.72,540.58 494.28,559.02 494.62,567.00C495.21,580.75 495.14,581.59 493.20,583.33C491.92,584.48 488.60,585.47 484.33,585.98C480.57,586.43 466.48,587.31 453.00,587.95C439.52,588.58 410.50,590.00 388.50,591.10C366.50,592.20 342.65,593.31 335.50,593.56zM338.23,574.98C341.13,574.97 347.74,574.52 352.93,573.97C359.14,573.32 362.99,572.42 364.18,571.33C365.18,570.43 366.00,569.13 366.00,568.45C366.00,567.77 368.67,563.23 371.93,558.36C375.19,553.49 381.48,545.23 385.92,540.00C390.36,534.77 394.92,528.60 396.07,526.29C398.05,522.26 398.13,520.77 397.82,492.29C397.50,462.50 397.50,462.50 400.30,457.06C401.85,454.07 404.63,449.54 406.50,447.00C408.37,444.46 413.64,438.81 418.23,434.44C422.81,430.07 430.15,424.39 434.55,421.82C438.94,419.25 445.92,416.01 450.06,414.62C455.46,412.80 461.51,411.79 471.54,411.02C479.22,410.43 491.00,409.49 497.71,408.93C504.43,408.37 512.53,407.25 515.71,406.44C518.90,405.64 525.10,403.21 529.50,401.05C533.90,398.89 540.53,394.62 544.23,391.55C547.94,388.49 552.79,383.67 555.02,380.85C557.26,378.03 560.19,373.83 561.54,371.52C562.89,369.22 564.90,363.81 566.00,359.50C567.42,353.96 568.00,348.41 568.00,340.45C568.00,334.27 567.29,325.46 566.42,320.87C565.55,316.28 563.91,309.82 562.78,306.51C561.64,303.21 558.97,297.00 556.83,292.72C554.70,288.44 548.03,277.62 542.02,268.67C536.01,259.72 527.75,248.59 523.67,243.95C519.58,239.30 512.92,232.55 508.87,228.95C504.82,225.35 498.06,219.83 493.85,216.69C489.65,213.55 483.57,209.38 480.35,207.42C477.13,205.46 470.45,201.88 465.50,199.47C460.55,197.05 452.15,193.50 446.83,191.58C441.51,189.66 433.41,187.19 428.83,186.09C424.25,184.98 417.12,183.52 413.00,182.83C408.88,182.14 398.30,181.57 389.50,181.57C376.92,181.57 371.10,182.05 362.27,183.81C356.09,185.04 347.99,186.99 344.27,188.13C340.55,189.27 333.23,192.01 328.00,194.21C322.77,196.41 315.07,200.24 310.89,202.72C306.70,205.19 300.32,209.43 296.72,212.13C293.11,214.83 286.36,220.84 281.71,225.49C277.06,230.14 270.73,237.24 267.65,241.26C264.57,245.29 260.00,252.16 257.50,256.54C255.01,260.92 251.18,269.05 249.00,274.62C246.82,280.19 244.13,288.64 243.02,293.41C241.91,298.18 241.00,304.05 241.00,306.46C241.00,310.80 241.08,310.90 248.25,315.65C252.24,318.29 257.98,322.95 261.00,325.99C264.02,329.04 268.99,334.42 272.03,337.94C277.57,344.36 277.57,344.36 299.53,345.07C314.59,345.57 323.31,346.29 327.27,347.39C330.44,348.27 335.16,350.09 337.77,351.44C340.37,352.79 343.85,354.82 345.50,355.94C347.15,357.07 349.01,357.99 349.63,357.99C350.24,358.00 353.17,354.60 356.13,350.45C359.08,346.30 362.91,340.67 364.63,337.94C367.62,333.22 367.78,332.44 367.93,321.99C368.02,315.95 368.71,307.20 369.47,302.54C370.22,297.88 371.15,293.57 371.52,292.96C371.97,292.23 372.68,292.53 373.59,293.82C374.35,294.91 376.29,299.78 377.91,304.65C379.80,310.34 381.26,317.61 382.01,325.00C382.86,333.56 382.87,337.25 382.03,339.44C381.41,341.06 378.56,345.56 375.70,349.44C372.84,353.32 367.18,360.77 363.12,366.00C359.07,371.23 355.09,375.88 354.29,376.35C353.49,376.81 351.21,376.89 349.23,376.51C347.24,376.14 340.42,373.16 334.06,369.88C324.54,364.97 321.18,363.76 315.00,362.99C310.88,362.48 302.27,362.05 295.89,362.03C289.50,362.01 281.89,361.55 278.97,361.00C276.06,360.44 272.15,358.83 270.28,357.40C268.42,355.98 261.58,348.44 255.09,340.66C248.59,332.87 242.12,325.44 240.71,324.15C239.30,322.85 237.66,322.09 237.07,322.45C236.36,322.90 236.00,330.61 236.00,345.44C236.00,367.76 236.00,367.76 232.67,374.13C230.85,377.63 226.53,385.31 223.08,391.19C219.63,397.06 217.10,402.35 217.46,402.94C217.88,403.62 224.25,404.01 235.31,404.01C247.12,404.02 253.28,404.42 255.00,405.29C256.60,406.09 257.83,407.87 258.41,410.21C259.12,413.07 258.96,414.42 257.64,416.43C256.41,418.31 255.08,419.00 252.73,419.01C250.95,419.01 247.09,419.31 244.15,419.66C238.79,420.30 238.79,420.30 239.18,427.10C239.39,430.84 239.85,434.18 240.20,434.54C240.56,434.89 247.74,435.78 256.17,436.52C264.60,437.26 273.52,438.32 276.00,438.88C278.48,439.44 281.29,440.87 282.25,442.06C283.21,443.25 284.00,445.28 284.00,446.58C284.00,447.95 283.12,449.40 281.87,450.07C280.70,450.70 272.48,451.59 263.62,452.06C254.75,452.53 246.71,452.93 245.75,452.96C244.79,452.98 244.00,453.64 244.00,454.42C244.00,455.21 245.14,457.20 246.53,458.85C247.92,460.50 250.40,462.15 252.04,462.51C253.68,462.87 255.41,463.91 255.88,464.83C256.36,465.75 257.07,471.23 257.46,477.00C257.99,484.81 258.71,488.46 260.27,491.24C261.41,493.29 263.96,496.08 265.93,497.44C267.89,498.80 272.18,500.60 275.46,501.45C279.53,502.51 286.03,502.99 295.96,502.98C303.96,502.98 315.90,502.53 322.50,501.99C329.10,501.45 336.90,500.52 339.83,499.92C343.14,499.24 346.37,497.75 348.33,496.00C351.50,493.17 351.50,493.17 352.08,463.33C352.61,435.72 352.82,433.08 354.86,427.85C356.07,424.75 358.91,419.35 361.16,415.85C363.41,412.36 368.31,405.88 372.06,401.46C375.80,397.03 385.98,386.45 394.68,377.95C403.38,369.45 413.35,360.26 416.83,357.53C420.31,354.81 424.20,350.76 425.47,348.54C426.74,346.32 428.73,341.57 429.89,338.00C431.05,334.43 432.88,330.07 433.94,328.33C435.00,326.58 437.82,324.02 440.19,322.63C442.56,321.24 447.00,319.45 450.05,318.66C453.10,317.87 460.62,316.66 466.76,315.98C475.11,315.06 478.68,314.21 480.95,312.62C482.61,311.46 487.80,306.04 492.49,300.59C497.41,294.87 501.00,289.79 501.00,288.56C501.00,287.32 498.90,284.36 496.02,281.52C493.29,278.83 490.36,275.18 489.52,273.41C488.40,271.04 488.00,266.76 488.00,257.06C488.00,243.92 488.00,243.92 484.12,239.76C480.23,235.59 480.23,235.59 461.71,234.50C448.39,233.71 442.68,233.00 441.35,231.95C440.33,231.15 435.18,226.05 429.91,220.62C420.32,210.73 420.32,210.73 413.41,211.44C409.61,211.83 405.53,212.38 404.34,212.66C402.94,212.99 400.53,216.03 397.44,221.34C394.83,225.83 390.85,232.61 388.60,236.42C386.34,240.22 383.31,244.21 381.86,245.28C380.41,246.35 372.59,248.96 364.49,251.07C356.38,253.18 349.59,255.08 349.38,255.29C349.17,255.50 349.53,260.48 350.17,266.37C351.19,275.67 351.13,277.50 349.77,280.37C348.90,282.18 345.83,286.55 342.95,290.08C340.07,293.61 335.66,298.63 333.15,301.24C328.60,305.97 328.60,305.97 330.82,315.24C332.04,320.33 333.02,324.84 333.02,325.25C333.01,325.66 332.24,326.00 331.32,326.00C330.40,326.00 326.50,324.99 322.66,323.75C315.96,321.59 315.35,321.12 307.42,311.91C302.88,306.63 297.75,301.13 296.03,299.68C294.32,298.24 291.24,296.63 289.20,296.11C287.17,295.60 282.01,294.87 277.75,294.50C272.76,294.07 268.50,293.04 265.82,291.63C263.53,290.41 260.72,288.17 259.58,286.63C257.53,283.88 257.53,283.83 259.44,282.42C260.83,281.40 264.41,281.00 272.08,281.00C281.10,281.00 282.89,280.74 283.42,279.35C283.76,278.45 284.50,271.81 285.06,264.60C285.61,257.40 286.52,247.46 287.08,242.53C287.64,237.60 288.27,233.40 288.48,233.19C288.68,232.99 289.81,233.12 290.98,233.49C292.15,233.87 294.44,236.00 296.06,238.23C298.75,241.95 299.00,242.99 298.97,250.40C298.95,254.86 298.52,263.12 298.01,268.77C297.50,274.42 297.31,279.65 297.59,280.38C297.87,281.11 301.97,285.04 306.69,289.11C311.40,293.17 316.04,297.07 316.99,297.78C318.52,298.91 319.59,297.90 326.47,288.79C334.22,278.52 334.22,278.52 333.50,264.18C333.11,256.29 332.50,248.79 332.14,247.51C331.79,246.23 326.87,240.41 321.22,234.57C315.57,228.74 310.41,222.80 309.76,221.37C308.75,219.15 308.85,218.58 310.48,217.39C311.53,216.63 314.14,216.00 316.29,216.00C318.44,216.00 321.71,216.72 323.56,217.60C325.41,218.48 331.33,223.85 336.71,229.54C346.50,239.89 346.50,239.89 356.56,237.51C362.09,236.20 367.75,234.62 369.13,233.99C370.89,233.18 373.36,229.45 377.43,221.43C380.61,215.15 384.86,208.21 386.86,206.01C389.72,202.87 391.78,201.69 396.46,200.50C399.95,199.62 406.92,199.00 413.26,199.00C420.67,199.00 424.97,199.45 426.85,200.42C428.36,201.20 433.53,205.22 438.35,209.34C444.69,214.78 448.12,217.01 450.80,217.44C452.84,217.77 459.74,218.45 466.13,218.96C472.53,219.46 479.45,220.58 481.49,221.43C483.54,222.29 488.81,226.48 493.20,230.74C497.60,235.01 501.91,239.85 502.80,241.50C503.89,243.53 504.59,248.24 504.96,256.08C505.46,266.54 505.78,268.07 508.25,271.81C509.76,274.08 512.28,276.61 513.85,277.42C515.43,278.24 521.39,279.85 527.11,281.01C532.82,282.17 538.10,283.71 538.83,284.43C539.57,285.15 540.42,288.50 540.72,291.87C541.28,298.00 541.28,298.00 529.61,298.00C522.05,298.00 516.79,298.48 514.69,299.36C512.56,300.25 508.02,304.95 501.47,313.04C495.99,319.83 490.15,326.89 488.50,328.73C485.52,332.07 485.40,332.10 471.50,333.53C463.80,334.33 455.35,335.48 452.72,336.10C448.56,337.07 447.65,337.76 445.82,341.36C444.66,343.64 441.49,349.10 438.77,353.50C436.05,357.90 432.67,362.73 431.24,364.24C429.81,365.75 428.84,367.15 429.07,367.36C429.31,367.58 431.98,367.38 435.00,366.93C438.02,366.48 454.23,365.59 471.00,364.96C497.79,363.95 501.87,363.58 504.57,361.93C506.26,360.90 511.94,355.63 517.20,350.21C525.73,341.42 526.88,339.79 527.88,335.13C528.50,332.25 529.00,328.21 529.00,326.14C529.00,324.07 529.56,321.64 530.25,320.74C530.94,319.84 534.19,317.70 537.47,315.99C542.90,313.16 543.55,313.03 544.64,314.52C545.30,315.43 546.16,319.55 546.55,323.69C546.94,327.82 547.00,333.38 546.68,336.03C546.37,338.69 545.13,342.81 543.93,345.18C542.73,347.56 539.23,352.43 536.16,356.00C533.08,359.57 527.40,365.58 523.53,369.35C519.67,373.12 515.25,376.85 513.73,377.64C512.20,378.43 508.60,379.48 505.73,379.98C502.85,380.48 489.25,381.38 475.50,381.98C461.75,382.59 446.94,383.77 442.59,384.60C438.25,385.44 432.40,387.27 429.59,388.68C426.79,390.09 421.57,393.40 418.00,396.04C414.43,398.68 407.19,405.26 401.92,410.67C396.65,416.08 390.48,422.99 388.22,426.03C385.95,429.07 382.97,434.02 381.60,437.03C380.23,440.04 378.63,445.43 378.06,449.00C377.49,452.57 377.00,465.40 376.99,477.50C376.97,489.60 376.52,502.56 375.98,506.29C375.44,510.03 374.14,514.77 373.09,516.83C372.04,518.89 367.29,524.83 362.54,530.04C357.79,535.24 350.62,543.82 346.60,549.09C342.59,554.37 338.15,561.12 336.74,564.09C335.34,567.07 333.91,570.74 333.58,572.25C332.97,574.98 333.00,575.00 338.23,574.98zM402.74,564.25C406.46,563.97 410.25,563.35 411.16,562.88C412.07,562.41 417.77,554.65 423.83,545.62C432.47,532.75 435.00,528.21 435.54,524.56C435.93,522.00 435.91,510.25 435.51,498.44C435.11,486.64 434.41,476.75 433.95,476.47C433.49,476.19 430.88,477.88 428.14,480.23C425.40,482.58 422.45,485.92 421.58,487.65C420.34,490.12 420.00,494.16 420.00,506.24C420.00,516.64 419.54,523.21 418.59,526.36C417.82,528.93 413.53,536.21 409.06,542.53C404.59,548.86 399.55,556.00 397.85,558.41C396.15,560.83 395.03,563.24 395.37,563.78C395.72,564.36 398.78,564.56 402.74,564.25zM408.41,312.99C407.91,312.99 406.51,311.53 405.30,309.74C404.09,307.96 399.03,299.32 394.05,290.54C385.92,276.21 385.00,274.08 385.02,269.54C385.03,266.66 385.91,262.59 387.07,260.03C388.19,257.57 389.47,255.32 389.92,255.03C390.36,254.74 391.70,252.59 392.89,250.25C394.07,247.91 395.42,246.00 395.88,246.00C396.34,246.00 397.01,248.36 397.35,251.25C397.70,254.14 397.99,259.12 397.99,262.32C398.00,265.51 398.51,269.11 399.14,270.32C399.77,271.52 403.21,276.89 406.80,282.25C410.39,287.61 413.88,292.00 414.57,292.00C415.25,292.00 417.17,288.74 418.83,284.75C420.49,280.76 422.16,276.15 422.54,274.50C423.02,272.47 427.01,267.84 434.86,260.22C441.25,254.02 448.28,248.11 450.49,247.08C452.70,246.05 456.36,244.99 458.62,244.72C460.89,244.45 463.34,244.59 464.08,245.05C465.18,245.73 465.15,246.35 463.95,248.65C463.15,250.18 457.29,256.85 450.93,263.47C439.36,275.50 439.36,275.50 437.59,284.50C436.61,289.45 435.22,294.92 434.49,296.66C433.43,299.22 431.52,300.61 424.44,303.97C419.64,306.25 414.27,309.22 412.51,310.56C410.75,311.90 408.90,313.00 408.41,312.99z" />

</svg>